REM DIRINDEX 1\2,1\3,1\4,1\5
REM DIRNAME folder01,folder02,folder03,folder04,folder05
TITLE ""
FILE "1Q_t_2071-2080.mp3" MP3
  TRACK 01 AUDIO
    TITLE "3:cjc004_7121"
    INDEX 01 00:00:00
  TRACK 02 AUDIO
    TITLE "0:"
    INDEX 01 00:00:60
  TRACK 03 AUDIO
    TITLE "4:cjc004_7122"
    INDEX 01 00:01:09
  TRACK 04 AUDIO
    TITLE "0:"
    INDEX 01 00:02:45
  TRACK 05 AUDIO
    TITLE "5:cjc004_7123"
    INDEX 01 00:02:71
  TRACK 06 AUDIO
    TITLE "0:"
    INDEX 01 00:07:17
  TRACK 07 AUDIO
    TITLE "3:cjc004_7124"
    INDEX 01 00:07:64
  TRACK 08 AUDIO
    TITLE "0:"
    INDEX 01 00:09:12
  TRACK 09 AUDIO
    TITLE "4:cjc004_7125"
    INDEX 01 00:09:38
  TRACK 10 AUDIO
    TITLE "0:"
    INDEX 01 00:10:68
  TRACK 11 AUDIO
    TITLE "5:cjc004_7126"
    INDEX 01 00:11:13
  TRACK 12 AUDIO
    TITLE "0:"
    INDEX 01 00:15:05
  TRACK 13 AUDIO
    TITLE "3:cjc004_7127"
    INDEX 01 00:15:60
  TRACK 14 AUDIO
    TITLE "0:"
    INDEX 01 00:16:69
  TRACK 15 AUDIO
    TITLE "4:cjc004_7128"
    INDEX 01 00:17:23
  TRACK 16 AUDIO
    TITLE "0:"
    INDEX 01 00:18:41
  TRACK 17 AUDIO
    TITLE "5:cjc004_7129"
    INDEX 01 00:18:66
  TRACK 18 AUDIO
    TITLE "0:"
    INDEX 01 00:22:62
  TRACK 19 AUDIO
    TITLE "3:cjc004_7130"
    INDEX 01 00:23:38
  TRACK 20 AUDIO
    TITLE "0:"
    INDEX 01 00:24:71
  TRACK 21 AUDIO
    TITLE "4:cjc004_7131"
    INDEX 01 00:25:21
  TRACK 22 AUDIO
    TITLE "0:"
    INDEX 01 00:26:38
  TRACK 23 AUDIO
    TITLE "5:cjc004_7132"
    INDEX 01 00:26:66
  TRACK 24 AUDIO
    TITLE "0:"
    INDEX 01 00:30:57
  TRACK 25 AUDIO
    TITLE "3:cjc004_7133"
    INDEX 01 00:31:29
  TRACK 26 AUDIO
    TITLE "0:"
    INDEX 01 00:32:41
  TRACK 27 AUDIO
    TITLE "4:cjc004_7134"
    INDEX 01 00:32:68
  TRACK 28 AUDIO
    TITLE "0:"
    INDEX 01 00:34:14
  TRACK 29 AUDIO
    TITLE "5:cjc004_7135"
    INDEX 01 00:34:38
  TRACK 30 AUDIO
    TITLE "0:"
    INDEX 01 00:39:11
  TRACK 31 AUDIO
    TITLE "3:cjc004_7136"
    INDEX 01 00:39:58
  TRACK 32 AUDIO
    TITLE "0:"
    INDEX 01 00:41:08
  TRACK 33 AUDIO
    TITLE "4:cjc004_7137"
    INDEX 01 00:41:38
  TRACK 34 AUDIO
    TITLE "0:"
    INDEX 01 00:42:72
  TRACK 35 AUDIO
    TITLE "5:cjc004_7138"
    INDEX 01 00:43:17
  TRACK 36 AUDIO
    TITLE "0:"
    INDEX 01 00:47:60
  TRACK 37 AUDIO
    TITLE "3:cjc004_7139"
    INDEX 01 00:48:38
  TRACK 38 AUDIO
    TITLE "0:"
    INDEX 01 00:49:47
  TRACK 39 AUDIO
    TITLE "4:cjc004_7140"
    INDEX 01 00:49:72
  TRACK 40 AUDIO
    TITLE "0:"
    INDEX 01 00:50:68
  TRACK 41 AUDIO
    TITLE "5:cjc004_7141"
    INDEX 01 00:51:24
  TRACK 42 AUDIO
    TITLE "0:"
    INDEX 01 00:54:23
  TRACK 43 AUDIO
    TITLE "3:cjc004_7142"
    INDEX 01 00:55:03
  TRACK 44 AUDIO
    TITLE "0:"
    INDEX 01 00:56:14
  TRACK 45 AUDIO
    TITLE "4:cjc004_7143"
    INDEX 01 00:56:43
  TRACK 46 AUDIO
    TITLE "0:"
    INDEX 01 00:57:50
  TRACK 47 AUDIO
    TITLE "5:cjc004_7144"
    INDEX 01 00:58:03
  TRACK 48 AUDIO
    TITLE "0:"
    INDEX 01 01:03:63
  TRACK 49 AUDIO
    TITLE "3:cjc004_7145"
    INDEX 01 01:04:37
  TRACK 50 AUDIO
    TITLE "0:"
    INDEX 01 01:05:48
  TRACK 51 AUDIO
    TITLE "4:cjc004_7146"
    INDEX 01 01:05:73
  TRACK 52 AUDIO
    TITLE "0:"
    INDEX 01 01:07:14
  TRACK 53 AUDIO
    TITLE "5:cjc004_7147"
    INDEX 01 01:07:37
  TRACK 54 AUDIO
    TITLE "0:"
    INDEX 01 01:12:62
  TRACK 55 AUDIO
    TITLE "3:cjc004_7148"
    INDEX 01 01:13:42
  TRACK 56 AUDIO
    TITLE "0:"
    INDEX 01 01:14:53
  TRACK 57 AUDIO
    TITLE "4:cjc004_7149"
    INDEX 01 01:15:05
  TRACK 58 AUDIO
    TITLE "0:"
    INDEX 01 01:16:18
  TRACK 59 AUDIO
    TITLE "5:cjc004_7150"
    INDEX 01 01:16:42
  TRACK 60 AUDIO
    TITLE "0:"
    INDEX 01 01:21:02
